<mxfile host="app.diagrams.net" modified="2024-07-03T11:42:28.293Z" agent="Mozilla/5.0 (Macintosh; Intel Mac OS X 10_15_7) AppleWebKit/537.36 (KHTML, like Gecko) Chrome/126.0.0.0 Safari/537.36" etag="aj8Fu9d6SRIVcnsOHi3e" version="24.6.4" type="google" pages="5">
  <diagram name="検索画面" id="03018318-947c-dd8e-b7a3-06fadd420f32">
    <mxGraphModel grid="1" page="1" gridSize="10" guides="1" tooltips="1" connect="1" arrows="1" fold="1" pageScale="1" pageWidth="1100" pageHeight="850" background="none" math="0" shadow="0">
      <root>
        <mxCell id="0" />
        <mxCell id="1" parent="0" />
        <mxCell id="Il6v-k_jOqS-XT5PGqY4-1" value="" style="whiteSpace=wrap;html=1;aspect=fixed;" vertex="1" parent="1">
          <mxGeometry x="130" y="20" width="680" height="680" as="geometry" />
        </mxCell>
        <mxCell id="677b7b8949515195-2" value="検索" style="whiteSpace=wrap;html=1;rounded=0;shadow=0;labelBackgroundColor=none;strokeWidth=1;fontFamily=Verdana;fontSize=28;align=center;comic=1;" vertex="1" parent="1">
          <mxGeometry x="370" y="450" width="190" height="50" as="geometry" />
        </mxCell>
        <mxCell id="Il6v-k_jOqS-XT5PGqY4-2" value="検索条件" style="rounded=1;whiteSpace=wrap;html=1;" vertex="1" parent="1">
          <mxGeometry x="210" y="180" width="95" height="30" as="geometry" />
        </mxCell>
        <mxCell id="Il6v-k_jOqS-XT5PGqY4-3" value="" style="ellipse;whiteSpace=wrap;html=1;aspect=fixed;" vertex="1" parent="1">
          <mxGeometry x="250" y="240" width="20" height="20" as="geometry" />
        </mxCell>
        <mxCell id="Il6v-k_jOqS-XT5PGqY4-4" value="text" style="rounded=0;whiteSpace=wrap;html=1;" vertex="1" parent="1">
          <mxGeometry x="300" y="240" width="70" height="20" as="geometry" />
        </mxCell>
        <mxCell id="Il6v-k_jOqS-XT5PGqY4-5" value="text" style="rounded=0;whiteSpace=wrap;html=1;" vertex="1" parent="1">
          <mxGeometry x="300" y="290" width="70" height="20" as="geometry" />
        </mxCell>
        <mxCell id="Il6v-k_jOqS-XT5PGqY4-6" value="" style="ellipse;whiteSpace=wrap;html=1;aspect=fixed;" vertex="1" parent="1">
          <mxGeometry x="250" y="290" width="20" height="20" as="geometry" />
        </mxCell>
        <mxCell id="Il6v-k_jOqS-XT5PGqY4-7" value="" style="ellipse;whiteSpace=wrap;html=1;aspect=fixed;" vertex="1" parent="1">
          <mxGeometry x="430" y="240" width="20" height="20" as="geometry" />
        </mxCell>
        <mxCell id="Il6v-k_jOqS-XT5PGqY4-9" value="" style="ellipse;whiteSpace=wrap;html=1;aspect=fixed;" vertex="1" parent="1">
          <mxGeometry x="430" y="290" width="20" height="20" as="geometry" />
        </mxCell>
        <mxCell id="Il6v-k_jOqS-XT5PGqY4-10" value="text" style="rounded=0;whiteSpace=wrap;html=1;" vertex="1" parent="1">
          <mxGeometry x="500" y="240" width="70" height="20" as="geometry" />
        </mxCell>
        <mxCell id="Il6v-k_jOqS-XT5PGqY4-11" value="text" style="rounded=0;whiteSpace=wrap;html=1;" vertex="1" parent="1">
          <mxGeometry x="500" y="290" width="70" height="20" as="geometry" />
        </mxCell>
        <mxCell id="Il6v-k_jOqS-XT5PGqY4-12" value="&lt;font style=&quot;font-size: 24px;&quot;&gt;アプリ名&lt;/font&gt;" style="rounded=0;whiteSpace=wrap;html=1;" vertex="1" parent="1">
          <mxGeometry x="300" y="80" width="320" height="60" as="geometry" />
        </mxCell>
      </root>
    </mxGraphModel>
  </diagram>
  <diagram id="q5MYBy594WwU8o8b-A-j" name="ログイン画面">
    <mxGraphModel grid="1" page="1" gridSize="10" guides="1" tooltips="1" connect="1" arrows="1" fold="1" pageScale="1" pageWidth="827" pageHeight="1169" math="0" shadow="0">
      <root>
        <mxCell id="0" />
        <mxCell id="1" parent="0" />
        <mxCell id="FkHoq6cvxrbAaU2Ii8df-1" value="" style="whiteSpace=wrap;html=1;aspect=fixed;" vertex="1" parent="1">
          <mxGeometry x="70" y="20" width="460" height="460" as="geometry" />
        </mxCell>
        <mxCell id="nn2x_VSK3Zq6RoEAm6Yu-1" value="アプリ名" style="rounded=0;whiteSpace=wrap;html=1;" vertex="1" parent="1">
          <mxGeometry x="240" y="70" width="120" height="60" as="geometry" />
        </mxCell>
        <mxCell id="nn2x_VSK3Zq6RoEAm6Yu-2" value="ログインID" style="rounded=0;whiteSpace=wrap;html=1;" vertex="1" parent="1">
          <mxGeometry x="120" y="190" width="160" height="40" as="geometry" />
        </mxCell>
        <mxCell id="nn2x_VSK3Zq6RoEAm6Yu-4" value="パスワード" style="rounded=0;whiteSpace=wrap;html=1;" vertex="1" parent="1">
          <mxGeometry x="320" y="190" width="160" height="40" as="geometry" />
        </mxCell>
        <mxCell id="nn2x_VSK3Zq6RoEAm6Yu-6" value="SNS連携" style="rounded=0;whiteSpace=wrap;html=1;" vertex="1" parent="1">
          <mxGeometry x="240" y="370" width="120" height="60" as="geometry" />
        </mxCell>
        <UserObject label="ログイン" link="data:page/id,03018318-947c-dd8e-b7a3-06fadd420f32" id="nn2x_VSK3Zq6RoEAm6Yu-7">
          <mxCell style="ellipse;whiteSpace=wrap;html=1;" vertex="1" parent="1">
            <mxGeometry x="240" y="280" width="120" height="50" as="geometry" />
          </mxCell>
        </UserObject>
      </root>
    </mxGraphModel>
  </diagram>
  <diagram id="jyBvqobicKtOeOSULxzb" name="検索結果画面">
    <mxGraphModel grid="1" page="1" gridSize="10" guides="1" tooltips="1" connect="1" arrows="1" fold="1" pageScale="1" pageWidth="827" pageHeight="1169" math="0" shadow="0">
      <root>
        <mxCell id="0" />
        <mxCell id="1" parent="0" />
        <mxCell id="VBK_jmnA9GU7kzVo-q1p-3" value="" style="whiteSpace=wrap;html=1;aspect=fixed;" vertex="1" parent="1">
          <mxGeometry x="70" y="70" width="490" height="490" as="geometry" />
        </mxCell>
        <mxCell id="VBK_jmnA9GU7kzVo-q1p-5" value="&lt;font style=&quot;font-size: 18px;&quot;&gt;Google Map&lt;/font&gt;" style="rounded=1;whiteSpace=wrap;html=1;" vertex="1" parent="1">
          <mxGeometry x="145" y="110" width="340" height="150" as="geometry" />
        </mxCell>
        <UserObject label="-Line 1&#xa;-Line 2&#xa;-Line 3&#xa;-Line 4" link="data:page/id,lbkzDaSwjLtbmoy7ArWc" id="VBK_jmnA9GU7kzVo-q1p-6">
          <mxCell style="strokeWidth=1;shadow=0;dashed=0;align=center;html=1;shape=mxgraph.mockup.text.bulletedList;textColor=#666666;mainText=,,,,;textSize=17;bulletStyle=none;strokeColor=none;fillColor=none;align=left;verticalAlign=top;fontSize=17;fontColor=#666666;" vertex="1" parent="1">
            <mxGeometry x="160" y="380" width="150" height="100" as="geometry" />
          </mxCell>
        </UserObject>
        <mxCell id="VBK_jmnA9GU7kzVo-q1p-7" value="検索結果一覧" style="rounded=1;whiteSpace=wrap;html=1;" vertex="1" parent="1">
          <mxGeometry x="160" y="330" width="90" height="35" as="geometry" />
        </mxCell>
      </root>
    </mxGraphModel>
  </diagram>
  <diagram id="lbkzDaSwjLtbmoy7ArWc" name="検索結果詳細画面">
    <mxGraphModel grid="1" page="1" gridSize="10" guides="1" tooltips="1" connect="1" arrows="1" fold="1" pageScale="1" pageWidth="827" pageHeight="1169" math="0" shadow="0">
      <root>
        <mxCell id="0" />
        <mxCell id="1" parent="0" />
        <mxCell id="MWUyfaemrigZnWPiXhe5-1" value="" style="rounded=0;whiteSpace=wrap;html=1;" vertex="1" parent="1">
          <mxGeometry x="110" y="40" width="490" height="510" as="geometry" />
        </mxCell>
        <mxCell id="MWUyfaemrigZnWPiXhe5-2" value="店舗名" style="text;html=1;align=center;verticalAlign=middle;whiteSpace=wrap;rounded=0;" vertex="1" parent="1">
          <mxGeometry x="160" y="80" width="60" height="30" as="geometry" />
        </mxCell>
        <mxCell id="MWUyfaemrigZnWPiXhe5-3" value="Google Map" style="rounded=1;whiteSpace=wrap;html=1;" vertex="1" parent="1">
          <mxGeometry x="200" y="120" width="300" height="110" as="geometry" />
        </mxCell>
        <mxCell id="MWUyfaemrigZnWPiXhe5-5" value="店舗の詳細情報&lt;div&gt;(コンセントの場所やGoogle Mapで開くためのリンク)&lt;/div&gt;&lt;div&gt;（ブログ投稿機能を使う）&lt;/div&gt;" style="rounded=0;whiteSpace=wrap;html=1;" vertex="1" parent="1">
          <mxGeometry x="200" y="310" width="300" height="150" as="geometry" />
        </mxCell>
      </root>
    </mxGraphModel>
  </diagram>
  <diagram id="yWqW41Q0uOF3iCMKxtiO" name="データ登録画面">
    <mxGraphModel grid="1" page="1" gridSize="10" guides="1" tooltips="1" connect="1" arrows="1" fold="1" pageScale="1" pageWidth="827" pageHeight="1169" math="0" shadow="0">
      <root>
        <mxCell id="0" />
        <mxCell id="1" parent="0" />
        <mxCell id="Orx9PvmozgiUhG_-PEOE-1" value="" style="rounded=0;whiteSpace=wrap;html=1;" vertex="1" parent="1">
          <mxGeometry x="100" y="40" width="420" height="440" as="geometry" />
        </mxCell>
        <mxCell id="Orx9PvmozgiUhG_-PEOE-2" value="店舗名" style="rounded=0;whiteSpace=wrap;html=1;" vertex="1" parent="1">
          <mxGeometry x="150" y="80" width="110" height="40" as="geometry" />
        </mxCell>
        <mxCell id="Orx9PvmozgiUhG_-PEOE-3" value="Google Mapで検索するための座標情報" style="rounded=0;whiteSpace=wrap;html=1;" vertex="1" parent="1">
          <mxGeometry x="150" y="160" width="310" height="40" as="geometry" />
        </mxCell>
        <mxCell id="Orx9PvmozgiUhG_-PEOE-8" value="詳細情報&lt;div&gt;（コンセントの位置など）&lt;/div&gt;&lt;div&gt;（ブログ投稿機能を使う）&lt;/div&gt;" style="rounded=0;whiteSpace=wrap;html=1;" vertex="1" parent="1">
          <mxGeometry x="150" y="250" width="310" height="110" as="geometry" />
        </mxCell>
      </root>
    </mxGraphModel>
  </diagram>
</mxfile>
